<svg xmlns="http://www.w3.org/2000/svg" width="660" height="235" viewBox="0 0 660 235" font-family="DejaVu Sans, Verdana, sans-serif">
<rect width="660" height="235" fill="#ffffff"/>
<line x1="80" y1="120" x2="80" y2="60" stroke="#1a6fb5" stroke-width="3" stroke-linecap="square"/>
<line x1="80" y1="60" x2="150" y2="60" stroke="#1a6fb5" stroke-width="3" stroke-linecap="square"/>
<line x1="150" y1="60" x2="150" y2="120" stroke="#1a6fb5" stroke-width="3" stroke-linecap="square"/>
<line x1="150" y1="120" x2="220" y2="120" stroke="#1a6fb5" stroke-width="3" stroke-linecap="square"/>
<line x1="220" y1="120" x2="220" y2="60" stroke="#1a6fb5" stroke-width="3" stroke-linecap="square"/>
<line x1="220" y1="60" x2="290" y2="60" stroke="#1a6fb5" stroke-width="3" stroke-linecap="square"/>
<line x1="290" y1="60" x2="290" y2="120" stroke="#1a6fb5" stroke-width="3" stroke-linecap="square"/>
<line x1="290" y1="120" x2="360" y2="120" stroke="#1a6fb5" stroke-width="3" stroke-linecap="square"/>
<line x1="360" y1="120" x2="360" y2="60" stroke="#1a6fb5" stroke-width="3" stroke-linecap="square"/>
<line x1="360" y1="60" x2="430" y2="60" stroke="#1a6fb5" stroke-width="3" stroke-linecap="square"/>
<line x1="430" y1="60" x2="430" y2="120" stroke="#1a6fb5" stroke-width="3" stroke-linecap="square"/>
<line x1="430" y1="120" x2="500" y2="120" stroke="#1a6fb5" stroke-width="3" stroke-linecap="square"/>
<line x1="500" y1="120" x2="500" y2="60" stroke="#1a6fb5" stroke-width="3" stroke-linecap="square"/>
<line x1="500" y1="60" x2="570" y2="60" stroke="#1a6fb5" stroke-width="3" stroke-linecap="square"/>
<line x1="80" y1="140" x2="80" y2="151" stroke="#555555" stroke-width="1.5"/>
<line x1="80" y1="151" x2="150" y2="151" stroke="#555555" stroke-width="1.5"/>
<line x1="150" y1="151" x2="150" y2="140" stroke="#555555" stroke-width="1.5"/>
<text x="162" y="156" font-size="13" fill="#333333">1136 &#181;s: the gap between one flip and the next</text>
<line x1="80" y1="175" x2="80" y2="186" stroke="#555555" stroke-width="1.5"/>
<line x1="80" y1="186" x2="220" y2="186" stroke="#555555" stroke-width="1.5"/>
<line x1="220" y1="186" x2="220" y2="175" stroke="#555555" stroke-width="1.5"/>
<text x="232" y="191" font-size="13" fill="#333333">2272 &#181;s: one push and one pull</text>
<text x="70" y="65" text-anchor="end" font-size="14" fill="#333333">HIGH</text>
<text x="70" y="125" text-anchor="end" font-size="14" fill="#333333">LOW</text>
<text x="70" y="30" text-anchor="end" font-size="13" fill="#888888">GP20</text>
<text x="580" y="65" font-size="12" fill="#888888">push</text>
<text x="580" y="125" font-size="12" fill="#888888">pull</text>
<text x="80" y="222" font-size="13" fill="#666666">440 pushes per second = 440 Hz = the note A4</text>
</svg>
